<?xml version="1.0" encoding="UTF-8"?>
<svg version="1.1" xmlns="http://www.w3.org/2000/svg" width="464" height="387">
<path d="M0 0 C-0.52787109 0.93005859 -0.52787109 0.93005859 -1.06640625 1.87890625 C-5.45026821 9.74238711 -9.29601095 17.80268178 -13 26 C-13.54011719 27.18078125 -14.08023438 28.3615625 -14.63671875 29.578125 C-24.56083791 51.87614587 -27.84903855 75.55548616 -20 99 C-19.43925781 100.70542969 -19.43925781 100.70542969 -18.8671875 102.4453125 C-15.09089678 113.02392823 -9.83484412 122.87905202 -2 131 C-1.21625 131.825 -0.4325 132.65 0.375 133.5 C1.24125 134.325 2.1075 135.15 3 136 C3.50402344 136.51046875 4.00804687 137.0209375 4.52734375 137.546875 C10.54883959 143.2916719 17.67099328 146.94645113 24.93066406 150.87695312 C44.83717838 161.68039412 61.09286451 174.31389721 68 197 C71.62622569 211.86285637 71.95071718 225.06936754 68 240 C67.73316406 241.03253906 67.46632812 242.06507813 67.19140625 243.12890625 C64.85690705 251.08695463 60.95377753 257.39182997 56 264 C55.45472656 264.73089844 54.90945312 265.46179688 54.34765625 266.21484375 C49.46950652 272.23798706 43.34412221 276.62213553 37 281 C35.95779297 281.74443359 35.95779297 281.74443359 34.89453125 282.50390625 C20.42003796 291.72020038 0.33208603 293.41178602 -16.1328125 290.04296875 C-34.34057627 285.80130728 -50.84171672 276.29015992 -61.6796875 260.5625 C-63.1817688 258.07200251 -64.59697135 255.54739839 -66 253 C-67.01471254 251.30881243 -68.03554838 249.62128363 -69.0625 247.9375 C-70.04365382 246.29285052 -71.02288888 244.64705452 -72 243 C-72.44472656 242.26007813 -72.88945313 241.52015625 -73.34765625 240.7578125 C-76.16055804 235.92340637 -78.21061695 231.06959785 -80.0078125 225.7734375 C-80.73715258 223.73473098 -81.5586989 221.72842573 -82.4296875 219.74609375 C-84.27602454 215.4899347 -85.65156222 211.12259614 -87 206.6875 C-87.2475 205.91599609 -87.495 205.14449219 -87.75 204.34960938 C-92.31878132 189.34639781 -93.49626617 174.42701313 -93.39111328 158.83203125 C-93.37501203 156.00211421 -93.39107515 153.17362461 -93.41015625 150.34375 C-93.42883596 135.06291521 -91.83487802 120.37900078 -87.1875 105.75 C-86.93178223 104.92064941 -86.67606445 104.09129883 -86.41259766 103.23681641 C-84.4316587 96.9769525 -82.06361869 90.99239308 -79.34765625 85.01171875 C-78.19008575 82.42480033 -77.23961071 79.86134102 -76.3125 77.1875 C-73.44001127 69.82214427 -68.57584902 63.35915003 -64.19824219 56.82495117 C-63.22856276 55.34810648 -62.31422187 53.83502382 -61.41796875 52.3125 C-53.48718319 39.37854669 -40.49837101 24.71098586 -28 16 C-27.34 16 -26.68 16 -26 16 C-26 15.34 -26 14.68 -26 14 C-23.7039575 12.11652764 -21.40500785 10.35916126 -19 8.625 C-18.35160156 8.14289062 -17.70320313 7.66078125 -17.03515625 7.1640625 C-4.94298186 -1.64766062 -4.94298186 -1.64766062 0 0 Z " fill="#269640" transform="translate(146,49)"/>
<path d="M0 0 C2.23397523 0.893422 4.48442209 1.52880625 6.80224609 2.1730957 C11.98428712 3.68236148 16.53265112 5.88808414 21.25927734 8.46606445 C22.08250488 8.90885742 22.90573242 9.35165039 23.75390625 9.80786133 C41.96175257 19.68836353 60.52402102 31.70103008 73.56787109 48.14575195 C75.05380406 49.95213139 75.05380406 49.95213139 77.31005859 52.13793945 C105.82137031 80.69149015 122.02767265 125.2248044 122.00927734 165.02856445 C121.99697229 167.94540885 121.97423637 170.86180529 121.94677734 173.77856445 C121.28677734 173.77856445 120.62677734 173.77856445 119.94677734 173.77856445 C118.83229831 172.052628 117.80685702 170.26898935 116.82177734 168.46606445 C113.8361278 163.19945284 110.59077809 158.32977195 106.96630859 153.4855957 C105.64339932 151.71233434 104.34775144 149.91832809 103.08349609 148.1027832 C99.24553347 142.61203336 95.10575933 137.57327327 90.57177734 132.65356445 C90.04745117 132.08460449 89.523125 131.51564453 88.98291016 130.92944336 C86.27056639 127.96560958 86.27056639 127.96560958 82.94677734 125.77856445 C82.94677734 125.11856445 82.94677734 124.45856445 82.94677734 123.77856445 C82.35896484 123.50270508 81.77115234 123.2268457 81.16552734 122.94262695 C79.05179475 121.83366162 77.3440901 120.59262794 75.44677734 119.15356445 C54.95237275 105.43444822 30.04844578 102.28539747 6.25537109 106.7980957 C0.45850006 108.02457686 -4.74858119 110.16946672 -10.05322266 112.77856445 C-10.83052734 113.1240332 -11.60783203 113.46950195 -12.40869141 113.82543945 C-17.26849386 116.0721823 -21.62965538 118.80815833 -26.05126953 121.80200195 C-43.90142484 133.84010848 -63.86936611 137.79628905 -85.22900391 133.9777832 C-102.13773926 130.30285231 -117.36534715 120.12310202 -127.92822266 106.34106445 C-139.00058522 89.05336081 -144.05368537 69.07559567 -140.43994141 48.6965332 C-137.33147279 35.83815423 -131.57619497 23.10559084 -122.05322266 13.77856445 C-121.30298828 12.9587207 -120.55275391 12.13887695 -119.77978516 11.29418945 C-114.11815788 5.2575017 -108.56415407 1.21594427 -101.05322266 -2.22143555 C-100.04775391 -2.68420898 -99.04228516 -3.14698242 -98.00634766 -3.6237793 C-69.75184684 -15.9940874 -27.99608162 -12.52374172 0 0 Z " fill="#FC0202" transform="translate(293.05322265625,33.221435546875)"/>
<path d="M0 0 C4.24772203 3.24037421 7.93935781 7.01191042 10.91894531 11.46386719 C10.91894531 12.12386719 10.91894531 12.78386719 10.91894531 13.46386719 C11.57894531 13.46386719 12.23894531 13.46386719 12.91894531 13.46386719 C12.91894531 14.12386719 12.91894531 14.78386719 12.91894531 15.46386719 C13.57894531 15.46386719 14.23894531 15.46386719 14.91894531 15.46386719 C18.72345348 21.63475329 21.5865498 27.81031147 23.73144531 34.71386719 C23.93793701 35.37451172 24.14442871 36.03515625 24.35717773 36.71582031 C28.16123066 49.48440117 28.13858434 63.56648277 24.91894531 76.46386719 C24.70882813 77.4190625 24.49871094 78.37425781 24.28222656 79.35839844 C19.65475814 97.30394673 6.31770601 118.56117407 -7.08105469 131.46386719 C-7.74105469 131.46386719 -8.40105469 131.46386719 -9.08105469 131.46386719 C-9.29761719 132.17929687 -9.51417969 132.89472656 -9.73730469 133.63183594 C-11.43486394 137.20954075 -13.62805271 139.15363517 -16.58105469 141.77636719 C-17.56074219 142.659375 -18.54042969 143.54238281 -19.54980469 144.45214844 C-22.08105469 146.46386719 -22.08105469 146.46386719 -24.08105469 146.46386719 C-24.08105469 147.12386719 -24.08105469 147.78386719 -24.08105469 148.46386719 C-24.74105469 148.46386719 -25.40105469 148.46386719 -26.08105469 148.46386719 C-26.30792969 149.04136719 -26.53480469 149.61886719 -26.76855469 150.21386719 C-30.02870727 155.80270019 -37.09723294 159.46925994 -43.08105469 161.46386719 C-43.08105469 162.12386719 -43.08105469 162.78386719 -43.08105469 163.46386719 C-45.30313314 165.00900098 -47.50247855 166.40818487 -49.83105469 167.77636719 C-50.85017944 168.38194458 -50.85017944 168.38194458 -51.88989258 168.99975586 C-56.83590913 171.8789014 -61.84571666 174.26092217 -67.20214844 176.29589844 C-69.53105509 177.24073302 -71.6883847 178.26461112 -73.91699219 179.41308594 C-95.19242074 190.1848522 -119.90557851 192.69197808 -143.39355469 192.71386719 C-144.52130814 192.71537781 -144.52130814 192.71537781 -145.67184448 192.71691895 C-158.02643618 192.70576045 -169.94854031 191.94706896 -182.08105469 189.46386719 C-182.83612305 189.31401367 -183.59119141 189.16416016 -184.36914062 189.00976562 C-199.58164401 185.92269579 -213.34998835 180.63529045 -227.08105469 173.46386719 C-228.70414069 172.64755041 -230.3287692 171.83428005 -231.95605469 171.02636719 C-232.98730469 170.51074219 -234.01855469 169.99511719 -235.08105469 169.46386719 C-235.08105469 168.47386719 -235.08105469 167.48386719 -235.08105469 166.46386719 C-233.19 166.40779297 -233.19 166.40779297 -231.26074219 166.35058594 C-197.39451576 165.15707694 -165.11180466 160.17458931 -140.08105469 135.46386719 C-125.45977145 119.13786034 -116.62096747 97.62770759 -117.08886719 75.61621094 C-117.10640317 74.10775435 -117.12330952 72.59929034 -117.13964844 71.09082031 C-117.17033813 68.75669872 -117.20562135 66.42296787 -117.25244141 64.08911133 C-117.52467687 49.71110261 -116.05509405 37.09321196 -109.39355469 24.08886719 C-108.97783203 23.24582031 -108.56210937 22.40277344 -108.13378906 21.53417969 C-107.12991866 19.5033614 -106.11274082 17.48065343 -105.08105469 15.46386719 C-104.42105469 15.46386719 -103.76105469 15.46386719 -103.08105469 15.46386719 C-102.77167969 14.84511719 -102.46230469 14.22636719 -102.14355469 13.58886719 C-101.45605469 12.21386719 -100.76855469 10.83886719 -100.08105469 9.46386719 C-99.42105469 9.46386719 -98.76105469 9.46386719 -98.08105469 9.46386719 C-97.84128906 8.8825 -97.60152344 8.30113281 -97.35449219 7.70214844 C-91.32736754 -2.89153997 -75.50760223 -9.80165977 -64.20385742 -13.09301758 C-40.99269884 -18.87867113 -19.1970025 -13.47110835 0 0 Z " fill="#054C80" transform="translate(378.0810546875,193.5361328125)"/>
<path d="M0 0 C0.77214844 0.00902344 1.54429687 0.01804687 2.33984375 0.02734375 C2.90832031 0.03894531 3.47679687 0.05054688 4.0625 0.0625 C1.05632731 3.06867269 -1.76131598 2.65835316 -5.9375 3.0625 C-5.9375 4.0525 -5.9375 5.0425 -5.9375 6.0625 C-4.9475 6.7225 -3.9575 7.3825 -2.9375 8.0625 C-3.2675 9.0525 -3.5975 10.0425 -3.9375 11.0625 C-5.5875 11.3925 -7.2375 11.7225 -8.9375 12.0625 C-9.2675 13.0525 -9.5975 14.0425 -9.9375 15.0625 C-9.2775 15.3925 -8.6175 15.7225 -7.9375 16.0625 C-12.52474674 15.024571 -16.64634039 13.13852152 -20.9375 11.25 C-21.74445313 10.90646484 -22.55140625 10.56292969 -23.3828125 10.20898438 C-27.62406889 8.34381139 -30.91759086 6.7142923 -33.9375 3.0625 C-32.35575054 1.48075054 -30.68588295 1.86131499 -28.4921875 1.78125 C-27.57953125 1.74386719 -26.666875 1.70648438 -25.7265625 1.66796875 C-24.76492187 1.63316406 -23.80328125 1.59835937 -22.8125 1.5625 C-15.20016514 1.28017439 -7.58127825 -0.11663505 0 0 Z " fill="#396F95" transform="translate(175.9375,357.9375)"/>
<path d="M0 0 C2.6816869 2.6816869 3.36335489 5.70746611 4.4375 9.25 C4.65631836 9.96510742 4.87513672 10.68021484 5.10058594 11.41699219 C10.27211771 28.68853332 11.16834858 45.11763977 11 63 C10.34 63 9.68 63 9 63 C7.34375 60.515625 7.34375 60.515625 5.5 57.25 C4.8915625 56.18265625 4.283125 55.1153125 3.65625 54.015625 C2.38290532 51.69717666 1.15475367 49.37879255 0 47 C1.65 47.66 3.3 48.32 5 49 C5 49.66 5 50.32 5 51 C5.99 50.505 5.99 50.505 7 50 C8.14198937 43.4595154 9.17308774 35.17771906 5.9921875 29.0625 C4.73143125 26.44171535 4.61902964 24.20538716 4.4375 21.3125 C4.49245272 17.84404143 4.49245272 17.84404143 3 15 C2.95936168 13.33382885 2.957279 11.66611905 3 10 C2.34 10 1.68 10 1 10 C0.67 6.7 0.34 3.4 0 0 Z " fill="#EE8485" transform="translate(404,144)"/>
<path d="M0 0 C0 0.33 0 0.66 0 1 C-0.61530075 1.01030746 -1.2306015 1.02061493 -1.86454773 1.03123474 C-8.2723517 1.13946955 -14.68001987 1.25405363 -21.08764648 1.37231445 C-23.47856808 1.41560886 -25.86951951 1.45728782 -28.26049805 1.49731445 C-31.69849635 1.55514994 -35.13634529 1.61880641 -38.57421875 1.68359375 C-40.17604256 1.70866249 -40.17604256 1.70866249 -41.81022644 1.73423767 C-42.81088638 1.75418289 -43.81154633 1.77412811 -44.8425293 1.79467773 C-45.71967087 1.81022202 -46.59681244 1.8257663 -47.50053406 1.84178162 C-50.07587652 2.00480305 -52.4842556 2.43719881 -55 3 C-55 3.66 -55 4.32 -55 5 C-57.97 5 -60.94 5 -64 5 C-57.45986874 -1.54013126 -42.17591113 -1.8963771 -33.53808594 -2.00927734 C-8.62410974 -1.91821048 -8.62410974 -1.91821048 0 0 Z " fill="#EA7E7F" transform="translate(260,25)"/>
<path d="M0 0 C-0.52787109 0.93005859 -0.52787109 0.93005859 -1.06640625 1.87890625 C-7.9253893 14.18209516 -13.54378678 27.02900226 -19 40 C-19.33 40 -19.66 40 -20 40 C-20.125 33.375 -20.125 33.375 -19 30 C-18.34 30 -17.68 30 -17 30 C-17 29.01 -17 28.02 -17 27 C-16.34 27 -15.68 27 -15 27 C-15.226875 26.278125 -15.45375 25.55625 -15.6875 24.8125 C-16.09170575 21.17464828 -15.13932004 19.90336291 -13 17 C-12.2265625 16.319375 -12.2265625 16.319375 -11.4375 15.625 C-9.21406941 13.11155672 -8.78592302 10.2041477 -8 7 C-7.34 7 -6.68 7 -6 7 C-6 6.34 -6 5.68 -6 5 C-7.98 5 -9.96 5 -12 5 C-10.7410501 2.4821002 -9.60942883 2.07291536 -7.125 0.8125 C-6.07699219 0.26529297 -6.07699219 0.26529297 -5.0078125 -0.29296875 C-3 -1 -3 -1 0 0 Z " fill="#ADCFB5" transform="translate(146,49)"/>
<path d="M0 0 C1.72476562 0.00966797 1.72476562 0.00966797 3.484375 0.01953125 C6.25 0.1875 6.25 0.1875 7.25 1.1875 C10.57940598 1.84585711 13.91315645 2.43191028 17.25976562 2.99414062 C20.88541679 3.63435167 24.07843636 4.26458346 27.25 6.1875 C23.3292645 7.49441183 20.30508553 6.55676748 16.375 5.75 C3.13184331 3.26856543 -8.63902022 4.37513463 -21.77685547 6.82373047 C-24.42897132 7.31267536 -27.08848456 7.75305295 -29.75 8.1875 C-27.42332718 5.32122475 -26.1229953 4.27374683 -22.47265625 3.4296875 C-21.26480469 3.30851563 -20.05695313 3.18734375 -18.8125 3.0625 C-13.90276433 2.58373221 -13.90276433 2.58373221 -9.23046875 1.14453125 C-6.05242665 -0.08164247 -3.39513278 -0.04224713 0 0 Z " fill="#EB5A5A" transform="translate(318.75,133.8125)"/>
<path d="M0 0 C2.64 0.33 5.28 0.66 8 1 C8 1.66 8 2.32 8 3 C8.66 2.938125 9.32 2.87625 10 2.8125 C13 3 13 3 16.43359375 4.49609375 C21.90496065 6.60897932 27.27080252 6.36419243 33.0625 6.25 C34.11244141 6.24484375 35.16238281 6.2396875 36.24414062 6.234375 C45.13201602 6.75144034 45.13201602 6.75144034 53 4 C55.67058851 3.85884839 58.32432238 3.95752893 61 4 C50.19915535 11.2005631 33.56216019 10.51513102 21.2265625 8.56054688 C5.89198545 5.46029543 5.89198545 5.46029543 0 0 Z " fill="#EEB1B1" transform="translate(189,159)"/>
<path d="M0 0 C0.33 0 0.66 0 1 0 C1.33664217 4.82520445 0.47061693 6.94818823 -2 11 C-2.165 12.175625 -2.33 13.35125 -2.5 14.5625 C-3.02620858 18.18018396 -3.73164173 19.27797007 -6 22 C-8.41045528 26.93444651 -8.28208418 31.53867811 -8.36328125 36.94140625 C-9 40 -9 40 -11.54296875 42.40234375 C-12.35378906 42.92957031 -13.16460937 43.45679688 -14 44 C-13.41906988 38.41557494 -12.42491854 33.24847122 -10.8125 27.875 C-10.5961792 27.14506836 -10.3798584 26.41513672 -10.15698242 25.66308594 C-7.97067043 18.51859993 -5.06912728 11.80428218 -2 5 C-1.32365934 3.33723558 -0.65329958 1.67195152 0 0 Z " fill="#87BE97" transform="translate(70,126)"/>
<path d="M0 0 C0.33 0 0.66 0 1 0 C1.05416188 1.60379341 1.09286638 3.20811406 1.125 4.8125 C1.14820313 5.70582031 1.17140625 6.59914063 1.1953125 7.51953125 C1 10 1 10 -1 13 C-1.30929305 15.80948372 -1.30929305 15.80948372 -1.265625 18.98828125 C-1.26820313 20.16970703 -1.27078125 21.35113281 -1.2734375 22.56835938 C-1.26570312 23.80392578 -1.25796875 25.03949219 -1.25 26.3125 C-1.25773438 27.53646484 -1.26546875 28.76042969 -1.2734375 30.02148438 C-1.26957031 31.79942383 -1.26957031 31.79942383 -1.265625 33.61328125 C-1.26336914 34.69391846 -1.26111328 35.77455566 -1.25878906 36.88793945 C-0.98376545 40.19522814 -0.08956204 42.87956305 1 46 C0.625 48.375 0.625 48.375 0 50 C-0.48509793 48.62708132 -0.96275513 47.25153297 -1.4375 45.875 C-1.70433594 45.10929687 -1.97117188 44.34359375 -2.24609375 43.5546875 C-6.43281082 29.36757371 -4.67756223 13.782103 0 0 Z " fill="#F0B3B3" transform="translate(156,71)"/>
<path d="M0 0 C2.68163407 2.68163407 3.36351284 5.7074515 4.4375 9.25 C4.65559326 9.96365723 4.87368652 10.67731445 5.09838867 11.41259766 C8.12114849 21.51830709 10.66065173 31.38063514 10 42 C9.34 41.67 8.68 41.34 8 41 C7.65625 38.85546875 7.65625 38.85546875 7.5 36.1875 C7.28905068 32.47020563 7.28905068 32.47020563 6.00390625 29.03125 C4.71625472 26.42588503 4.61883248 24.20224526 4.4375 21.3125 C4.49245272 17.84404143 4.49245272 17.84404143 3 15 C2.95936168 13.33382885 2.957279 11.66611905 3 10 C2.34 10 1.68 10 1 10 C0.67 6.7 0.34 3.4 0 0 Z " fill="#ED8686" transform="translate(404,144)"/>
<path d="M0 0 C1 2 1 2 0.25 4.5 C-1 7 -1 7 -4 9 C-5.04213231 11.66322702 -5.82680132 14.28555543 -6.5 17.0625 C-7.12164947 19.47139171 -8.04419271 21.7060625 -9 24 C-9.66 24 -10.32 24 -11 24 C-11.12375 24.61875 -11.2475 25.2375 -11.375 25.875 C-12 28 -12 28 -14 30 C-13.52460869 23.6297564 -11.25813609 18.74264771 -8.4375 13.0625 C-8.01275391 12.18787109 -7.58800781 11.31324219 -7.15039062 10.41210938 C-6.108787 8.27038507 -5.0585578 6.13338147 -4 4 C-3.34 4 -2.68 4 -2 4 C-1.34 2.68 -0.68 1.36 0 0 Z " fill="#3E6E8F" transform="translate(277,205)"/>
<path d="M0 0 C0 3.72606968 -1.31540822 4.50327175 -3.6875 7.171875 C-6.01698868 10.41651995 -6.95674031 14.18319626 -8 18 C-8.99 18 -9.98 18 -11 18 C-10.87625 19.11375 -10.87625 19.11375 -10.75 20.25 C-11 23 -11 23 -12.875 25.3125 C-15 27 -15 27 -17 27 C-17.66 28.98 -18.32 30.96 -19 33 C-20 30 -20 30 -19.16723633 28.10229492 C-18.72661865 27.40209229 -18.28600098 26.70188965 -17.83203125 25.98046875 C-17.35056641 25.20509766 -16.86910156 24.42972656 -16.37304688 23.63085938 C-15.60057617 22.42139648 -15.60057617 22.42139648 -14.8125 21.1875 C-14.31685547 20.39279297 -13.82121094 19.59808594 -13.31054688 18.77929688 C-9.19479853 12.20606075 -5.0524977 5.89458065 0 0 Z " fill="#A3CCAF" transform="translate(91,93)"/>
<path d="M0 0 C0.66 0.33 1.32 0.66 2 1 C1.79296875 2.90625 1.79296875 2.90625 1 5 C-1.07421875 5.90625 -1.07421875 5.90625 -3.6875 6.5 C-11.50977882 8.3042282 -16.45259104 13.16810842 -21.875 18.75 C-22.46796875 19.35199219 -23.0609375 19.95398438 -23.671875 20.57421875 C-25.11923124 22.04491945 -26.5602763 23.5218267 -28 25 C-28 20.78469845 -26.06857218 19.62493358 -23.22338867 16.70556641 C-22.55154541 16.03960449 -21.87970215 15.37364258 -21.1875 14.6875 C-20.50985596 14.01122559 -19.83221191 13.33495117 -19.1340332 12.63818359 C-13.86202371 7.52461398 -8.7935675 3.89142421 -2 1 C-1.34 0.67 -0.68 0.34 0 0 Z " fill="#F0ABAC" transform="translate(194,30)"/>
<path d="M0 0 C0.99 0.33 1.98 0.66 3 1 C3.33 2.98 3.66 4.96 4 7 C4.99 7.33 5.98 7.66 7 8 C6.67 8.99 6.34 9.98 6 11 C6.99 11.33 7.98 11.66 9 12 C9.33 13.98 9.66 15.96 10 18 C10.928125 18.0928125 10.928125 18.0928125 11.875 18.1875 C14 19 14 19 15.125 21.375 C15.41375 22.24125 15.7025 23.1075 16 24 C16.66 24.99 17.32 25.98 18 27 C9.4493212 23.46571943 4.88168762 13.42088937 1.03125 5.56640625 C0 3 0 3 0 0 Z " fill="#ED8585" transform="translate(157,121)"/>
<path d="M0 0 C2.05078125 0.03255208 4.1015625 0.06510417 6.15234375 0.09765625 C6.15234375 0.75765625 6.15234375 1.41765625 6.15234375 2.09765625 C5.49234375 2.09765625 4.83234375 2.09765625 4.15234375 2.09765625 C4.02859375 3.21140625 3.90484375 4.32515625 3.77734375 5.47265625 C3.15234375 9.09765625 3.15234375 9.09765625 1.15234375 11.09765625 C1.15234375 9.77765625 1.15234375 8.45765625 1.15234375 7.09765625 C-1.81765625 6.76765625 -4.78765625 6.43765625 -7.84765625 6.09765625 C-1.84765625 0.09765625 -1.84765625 0.09765625 0 0 Z " fill="#71B380" transform="translate(133.84765625,53.90234375)"/>
<path d="M0 0 C2.475 0.495 2.475 0.495 5 1 C-1.68203069 8.60369009 -9.99378142 13.52367267 -20 15 C-19.34 14.34 -18.68 13.68 -18 13 C-17.01 13 -16.02 13 -15 13 C-15 12.01 -15 11.02 -15 10 C-11.38026598 8.68373308 -8.90432869 8 -5 8 C-5 7.01 -5 6.02 -5 5 C-3.68 5 -2.36 5 -1 5 C-0.67 3.35 -0.34 1.7 0 0 Z " fill="#A2CBAD" transform="translate(187,321)"/>
<path d="M0 0 C5.52220047 10.31259372 4.14298767 26.90253737 1 38 C0.37035448 39.3512101 -0.2857489 40.69154 -1 42 C-1.09765625 35.84765625 -1.09765625 35.84765625 -1 34 C-0.505 33.505 -0.505 33.505 0 33 C0.08843793 30.55169574 0.11528752 28.13179401 0.09765625 25.68359375 C0.0962413 24.95253922 0.09482635 24.22148468 0.09336853 23.46827698 C0.08775408 21.12464368 0.07519922 18.78110461 0.0625 16.4375 C0.05748686 14.85221492 0.05292363 13.26692834 0.04882812 11.68164062 C0.03777997 7.7877239 0.02050572 3.89387795 0 0 Z " fill="#89A5B8" transform="translate(402,232)"/>
<path d="M0 0 C0.66 0 1.32 0 2 0 C1.37664907 4.95602465 -0.06038466 9.16749781 -1.9375 13.75 C-2.20240234 14.42160156 -2.46730469 15.09320313 -2.74023438 15.78515625 C-3.89728188 18.65049971 -4.79293383 20.79293383 -7 23 C-7.125 16.375 -7.125 16.375 -6 13 C-5.34 13 -4.68 13 -4 13 C-4 12.01 -4 11.02 -4 10 C-3.34 10 -2.68 10 -2 10 C-2.226875 9.278125 -2.45375 8.55625 -2.6875 7.8125 C-3.08677021 4.2190681 -2.17364926 2.81769349 0 0 Z " fill="#8EC19C" transform="translate(133,66)"/>
<path d="M0 0 C0 0.33 0 0.66 0 1 C-1.30453125 1.10957031 -2.6090625 1.21914062 -3.953125 1.33203125 C-12.74632155 2.11557508 -21.20477 2.91018382 -29.6875 5.51171875 C-32.18391779 6.03883399 -33.61213083 5.82359376 -36 5 C-35.01 4.67 -34.02 4.34 -33 4 C-32.67 3.34 -32.34 2.68 -32 2 C-29.06293771 1.51048962 -26.20896327 1.14945293 -23.25 0.875 C-22.39559326 0.79008301 -21.54118652 0.70516602 -20.66088867 0.61767578 C-13.75291152 -0.02652436 -6.9381886 -0.22421435 0 0 Z " fill="#F0AFAF" transform="translate(325,136)"/>
<path d="M0 0 C4.01072167 1.55105712 6.02984378 4.12970639 8.6875 7.4375 C9.47511719 8.40558594 10.26273438 9.37367188 11.07421875 10.37109375 C13 13 13 13 14 16 C12.68 16 11.36 16 10 16 C9.608125 14.865625 9.21625 13.73125 8.8125 12.5625 C7.41389118 8.79660949 7.41389118 8.79660949 4.3125 8.0625 C3.549375 8.041875 2.78625 8.02125 2 8 C1.34 5.36 0.68 2.72 0 0 Z " fill="#AACFB4" transform="translate(191,213)"/>
<path d="M0 0 C2.05078125 0.03255208 4.1015625 0.06510417 6.15234375 0.09765625 C1.26640823 3.3549466 -3.07367 4.35305817 -8.90234375 4.29296875 C-10.0109375 4.28652344 -11.11953125 4.28007812 -12.26171875 4.2734375 C-13.40382812 4.25667969 -14.5459375 4.23992187 -15.72265625 4.22265625 C-16.88796875 4.21363281 -18.05328125 4.20460937 -19.25390625 4.1953125 C-22.11870202 4.17183057 -24.9830716 4.13898766 -27.84765625 4.09765625 C-27.84765625 3.76765625 -27.84765625 3.43765625 -27.84765625 3.09765625 C-26.02041016 3.00677734 -26.02041016 3.00677734 -24.15625 2.9140625 C-22.53254348 2.82959222 -20.90884603 2.74494753 -19.28515625 2.66015625 C-18.08536133 2.60118164 -18.08536133 2.60118164 -16.86132812 2.54101562 C-11.12511986 2.23664539 -5.18996203 0.27431089 0 0 Z " fill="#E03131" transform="translate(243.84765625,162.90234375)"/>
<path d="M0 0 C9.44897222 1.24328582 17.65459589 4.50768672 26 9 C25.01 9.33 24.02 9.66 23 10 C21.66666667 9.33333333 20.33333333 8.66666667 19 8 C17.845 7.855625 16.69 7.71125 15.5 7.5625 C11.84273219 6.97472482 10.81914333 6.18256258 8 4 C4.84881675 3.27954633 4.84881675 3.27954633 2 3 C2 2.34 2 1.68 2 1 C1.34 0.67 0.68 0.34 0 0 Z " fill="#EF8F91" transform="translate(289,33)"/>
<path d="M0 0 C1.07174763 3.65188082 0.76411467 6.26432828 0 10 C-0.99 10 -1.98 10 -3 10 C-3.28875 11.11375 -3.5775 12.2275 -3.875 13.375 C-5 17 -5 17 -7 19 C-7.99 19 -8.98 19 -10 19 C-8.05657711 15.03132589 -5.95916091 11.14583435 -3.875 7.25 C-3.50246094 6.55261719 -3.12992188 5.85523438 -2.74609375 5.13671875 C-1.83120092 3.42422705 -0.91566431 1.71207932 0 0 Z " fill="#82A1B7" transform="translate(255,302)"/>
<path d="M0 0 C4.84455959 1.58549223 4.84455959 1.58549223 7 3 C7.9375 6.1875 7.9375 6.1875 8 9 C9.32 9 10.64 9 12 9 C12.33 11.64 12.66 14.28 13 17 C10.04304032 14.13606827 7.39134957 11.14533726 4.8125 7.9375 C4.11769531 7.08027344 3.42289062 6.22304687 2.70703125 5.33984375 C1 3 1 3 0 0 Z " fill="#EF8989" transform="translate(387,168)"/>
<path d="M0 0 C0.33 0 0.66 0 1 0 C1.33664217 4.82520445 0.47061693 6.94818823 -2 11 C-2.2165625 12.7634375 -2.2165625 12.7634375 -2.4375 14.5625 C-3.07162725 18.43772211 -4.00236966 19.58255618 -7 22 C-5.83107109 14.1140915 -3.26456103 7.25181115 0 0 Z " fill="#6CB07C" transform="translate(70,126)"/>
<path d="M0 0 C9.59453303 1.74259681 9.59453303 1.74259681 13 5 C11.68 5 10.36 5 9 5 C8.67 5.66 8.34 6.32 8 7 C5.69 6.67 3.38 6.34 1 6 C1.66 5.67 2.32 5.34 3 5 C3 4.34 3 3.68 3 3 C2.01 2.67 1.02 2.34 0 2 C0 1.34 0 0.68 0 0 Z " fill="#5785A3" transform="translate(353,182)"/>
<path d="M0 0 C3.01351454 1.50675727 3.60409521 3.88652434 5.0625 6.875 C5.58972656 7.94492188 6.11695313 9.01484375 6.66015625 10.1171875 C8 13 8 13 9 16 C8.01 16 7.02 16 6 16 C3.50022457 12.66696609 3 11.26696398 3 7 C2.01 7 1.02 7 0 7 C0 4.69 0 2.38 0 0 Z " fill="#96C6A3" transform="translate(128,157)"/>
<path d="M0 0 C3.33333333 1.66666667 6.66666667 3.33333333 10 5 C10.144375 5.763125 10.28875 6.52625 10.4375 7.3125 C11.05464716 10.26109198 12.06882531 11.73296884 14 14 C10.14406926 12.41438362 7.66783709 9.93490046 4.75 7 C3.85796875 6.113125 2.9659375 5.22625 2.046875 4.3125 C0 2 0 2 0 0 Z " fill="#9CCAA8" transform="translate(86,310)"/>
<path d="M0 0 C6.93 0 13.86 0 21 0 C21 0.33 21 0.66 21 1 C15.39 1.66 9.78 2.32 4 3 C4.33 3.66 4.66 4.32 5 5 C2.525 4.01 2.525 4.01 0 3 C0 2.01 0 1.02 0 0 Z " fill="#BCCCD4" transform="translate(143,360)"/>
<path d="M0 0 C1.15242187 0.00902344 2.30484375 0.01804687 3.4921875 0.02734375 C4.36101562 0.03894531 5.22984375 0.05054688 6.125 0.0625 C6.125 0.3925 6.125 0.7225 6.125 1.0625 C5.41472656 1.11148437 4.70445312 1.16046875 3.97265625 1.2109375 C2.59400391 1.32308594 2.59400391 1.32308594 1.1875 1.4375 C0.27097656 1.50710938 -0.64554688 1.57671875 -1.58984375 1.6484375 C-2.72099609 1.85339844 -2.72099609 1.85339844 -3.875 2.0625 C-4.205 2.7225 -4.535 3.3825 -4.875 4.0625 C-7.75 4.25 -7.75 4.25 -10.875 4.0625 C-11.535 3.0725 -12.195 2.0825 -12.875 1.0625 C-8.52167264 0.22226812 -4.43057481 -0.04520995 0 0 Z " fill="#114E78" transform="translate(158.875,360.9375)"/>
<path d="M0 0 C0 3.63 0 7.26 0 11 C-3.88945394 9.05527303 -5.67130973 3.98607082 -7 0 C-3.98968256 -0.93423645 -3.13349732 -1.04449911 0 0 Z " fill="#7BB88A" transform="translate(86,299)"/>
<path d="M0 0 C1.73426971 3.25666031 2.99026337 6.57452179 4.1875 10.0625 C4.55230469 11.10535156 4.91710937 12.14820313 5.29296875 13.22265625 C6 16 6 16 5 19 C1.14815959 14.97097493 0.45630086 12.20604797 0.25 6.6875 C0.19328125 5.43324219 0.1365625 4.17898437 0.078125 2.88671875 C0.05234375 1.93410156 0.0265625 0.98148438 0 0 Z " fill="#AAD0B6" transform="translate(122,138)"/>
<path d="M0 0 C0 3.19219704 -0.23605791 4.39608549 -2 7 C-4.625 8.25 -4.625 8.25 -7 9 C-7 9.66 -7 10.32 -7 11 C-7.99 11 -8.98 11 -10 11 C-10 10.34 -10 9.68 -10 9 C-9.34 9 -8.68 9 -8 9 C-7.79375 8.443125 -7.5875 7.88625 -7.375 7.3125 C-5.44999226 4.07498698 -2.96149098 2.31768859 0 0 Z " fill="#7597AF" transform="translate(288,194)"/>
<path d="M0 0 C2.46968633 2.46968633 3.06997969 4.57488587 4.1875 7.875 C4.55230469 8.92429688 4.91710937 9.97359375 5.29296875 11.0546875 C5.98462433 13.93594885 6.03230681 15.27786612 5 18 C2.8480563 14.77208445 2.79913557 13.71599191 3 10 C2.34 10 1.68 10 1 10 C0.67 6.7 0.34 3.4 0 0 Z " fill="#EEA0A0" transform="translate(404,144)"/>
<path d="M0 0 C5.34021246 1.50193475 9.13647744 5.17482506 13 9 C13 9.33 13 9.66 13 10 C10.69 10 8.38 10 6 10 C5.7525 9.0925 5.505 8.185 5.25 7.25 C3.96018658 3.89648511 2.68028958 2.32291764 0 0 Z " fill="#F18B8D" transform="translate(338,57)"/>
<path d="M0 0 C0.66 0.33 1.32 0.66 2 1 C2 1.66 2 2.32 2 3 C1.01 3 0.02 3 -1 3 C-1.061875 3.598125 -1.12375 4.19625 -1.1875 4.8125 C-2.32979642 7.88791343 -4.17828061 8.45477272 -7 10 C-8.75149165 11.58245275 -8.75149165 11.58245275 -10 13 C-10.66 12.67 -11.32 12.34 -12 12 C-8.04 8.04 -4.08 4.08 0 0 Z " fill="#EC0C0D" transform="translate(181,39)"/>
<path d="M0 0 C1 2 1 2 0.25 4.5 C-1 7 -1 7 -4 9 C-5.20450304 11.55183404 -5.20450304 11.55183404 -6 14 C-6.66 14 -7.32 14 -8 14 C-6.8905928 10.51329166 -5.73662334 7.22515763 -4 4 C-3.34 4 -2.68 4 -2 4 C-1.34 2.68 -0.68 1.36 0 0 Z " fill="#92ABBC" transform="translate(277,205)"/>
<path d="M0 0 C1.98 0 3.96 0 6 0 C6 0.66 6 1.32 6 2 C5.34 2 4.68 2 4 2 C3.67 3.32 3.34 4.64 3 6 C1.35 5.67 -0.3 5.34 -2 5 C-1.34 3.35 -0.68 1.7 0 0 Z " fill="#269440" transform="translate(134,54)"/>
<path d="M0 0 C-2.64738916 1.4606285 -3.89448334 2 -7 2 C-7 2.66 -7 3.32 -7 4 C-9.97 4 -12.94 4 -16 4 C-13.58069291 1.58069291 -11.84292782 1.20557796 -8.5625 0.3125 C-7.11037109 -0.09548828 -7.11037109 -0.09548828 -5.62890625 -0.51171875 C-3 -1 -3 -1 0 0 Z " fill="#EF9596" transform="translate(212,26)"/>
<path d="M0 0 C1.65 0.33 3.3 0.66 5 1 C1.82679218 4.53586014 -0.16743695 6.58578031 -5 7 C-5 6.34 -5 5.68 -5 5 C-3.68 5 -2.36 5 -1 5 C-0.67 3.35 -0.34 1.7 0 0 Z " fill="#81BB91" transform="translate(187,321)"/>
<path d="M0 0 C0.66 0.33 1.32 0.66 2 1 C0.14285714 9.57142857 0.14285714 9.57142857 -3 13 C-3.125 6.375 -3.125 6.375 -2 3 C-1.34 3 -0.68 3 0 3 C0 2.01 0 1.02 0 0 Z " fill="#81BB8F" transform="translate(129,76)"/>
<path d="M0 0 C1.11841676 3.35525029 0.91538821 3.97089854 -0.3125 7.125 C-0.57675781 7.82882812 -0.84101563 8.53265625 -1.11328125 9.2578125 C-2 11 -2 11 -4 12 C-4.33292585 7.75519536 -4.43885872 5.64457375 -2 2.0625 C-1.34 1.381875 -0.68 0.70125 0 0 Z " fill="#7D9BB1" transform="translate(399,276)"/>
<path d="M0 0 C-1 2 -1 2 -4 4 C-4.33 4.66 -4.66 5.32 -5 6 C-5.66 6 -6.32 6 -7 6 C-7 5.01 -7 4.02 -7 3 C-8.65 3 -10.3 3 -12 3 C-3.7826087 -1.26086957 -3.7826087 -1.26086957 0 0 Z " fill="#7A9DB8" transform="translate(207,352)"/>
<path d="M0 0 C-0.33 1.65 -0.66 3.3 -1 5 C-1.9075 5.28875 -2.815 5.5775 -3.75 5.875 C-6.32202908 6.76531776 -8.61346766 7.71494413 -11 9 C-4.25 0 -4.25 0 0 0 Z " fill="#8EA9BB" transform="translate(234,334)"/>
<path d="M0 0 C2.83374881 3.20336822 3.5205537 5.78087253 4 10 C3.67 9.34 3.34 8.68 3 8 C1.68 8.33 0.36 8.66 -1 9 C-1.33 8.01 -1.66 7.02 -2 6 C-1.34 5.34 -0.68 4.68 0 4 C0 2.68 0 1.36 0 0 Z " fill="#688FAD" transform="translate(395,214)"/>
<path d="M0 0 C2.97 0.495 2.97 0.495 6 1 C3.60939149 2.59373901 1.69171821 3.65297076 -0.9375 4.6875 C-1.60652344 4.95949219 -2.27554687 5.23148437 -2.96484375 5.51171875 C-5.32830338 6.0787676 -6.7192799 5.76024003 -9 5 C-8.43410156 4.80664062 -7.86820312 4.61328125 -7.28515625 4.4140625 C-6.55167969 4.15367187 -5.81820313 3.89328125 -5.0625 3.625 C-3.96615234 3.24214844 -3.96615234 3.24214844 -2.84765625 2.8515625 C-0.81317884 2.14728587 -0.81317884 2.14728587 0 0 Z " fill="#9FB5C6" transform="translate(291,374)"/>
<path d="M0 0 C0.96661363 3.12180401 0.98988909 5.52083795 0.5625 8.75 C0.40974609 9.94882812 0.40974609 9.94882812 0.25390625 11.171875 C0.12822266 12.07679688 0.12822266 12.07679688 0 13 C-0.99 13 -1.98 13 -3 13 C-2.343621 8.51474352 -1.29925791 4.33085971 0 0 Z " fill="#8AA6BA" transform="translate(259,289)"/>
<path d="M0 0 C1.49828872 3.88235819 0.43110582 6.43449288 -0.9375 10.25 C-1.31777344 11.32765625 -1.69804687 12.4053125 -2.08984375 13.515625 C-2.39019531 14.33546875 -2.69054687 15.1553125 -3 16 C-3.33 16 -3.66 16 -4 16 C-4.27842482 10.52431179 -4.27409341 7.58373078 -1 3 C-0.67 2.01 -0.34 1.02 0 0 Z " fill="#B1D4B9" transform="translate(214,282)"/>
<path d="M0 0 C4.10811428 1.44992269 7.46855666 3.45407573 11 6 C11 6.33 11 6.66 11 7 C7.28400809 7.20086443 6.22791555 7.1519437 3 5 C3 4.01 3 3.02 3 2 C2.01 1.67 1.02 1.34 0 1 C0 0.67 0 0.34 0 0 Z " fill="#91C4A0" transform="translate(180,206)"/>
<path d="M0 0 C2.3125 0.1875 2.3125 0.1875 5 1 C6.625 3.375 6.625 3.375 8 6 C9.58245275 7.75149165 9.58245275 7.75149165 11 9 C10.67 9.66 10.34 10.32 10 11 C9.44570313 10.43410156 8.89140625 9.86820313 8.3203125 9.28515625 C7.59585937 8.55167969 6.87140625 7.81820312 6.125 7.0625 C5.40570313 6.33160156 4.68640625 5.60070312 3.9453125 4.84765625 C2.12972808 2.94332001 2.12972808 2.94332001 0 2 C0 1.34 0 0.68 0 0 Z " fill="#EEA9A9" transform="translate(376,157)"/>
<path d="M0 0 C1 2 1 2 0.375 5.5 C-1 9 -1 9 -3.5 10.375 C-4.325 10.58125 -5.15 10.7875 -6 11 C-6.99 11.495 -6.99 11.495 -8 12 C-6.59023295 8.96147295 -4.91129772 6.4060405 -2.875 3.75 C-2.06675781 2.69039063 -2.06675781 2.69039063 -1.2421875 1.609375 C-0.83226563 1.07828125 -0.42234375 0.5471875 0 0 Z " fill="#36954D" transform="translate(93,92)"/>
<path d="M0 0 C4.99275057 1.27721526 7.57611908 3.17330957 11 7 C8.625 7.1875 8.625 7.1875 6 7 C5.34 6.01 4.68 5.02 4 4 C1.94074861 3.27617533 1.94074861 3.27617533 0 3 C0 2.01 0 1.02 0 0 Z " fill="#ED8688" transform="translate(327,50)"/>
<path d="M0 0 C5.4185766 -0.22577402 9.77487721 0.53329887 15 2 C15 2.33 15 2.66 15 3 C11.37 3 7.74 3 4 3 C4 2.34 4 1.68 4 1 C2.68 0.67 1.36 0.34 0 0 Z " fill="#EEA3A4" transform="translate(261,26)"/>
<path d="M0 0 C2.84364336 2.71327575 4.87068581 5.69589177 7 9 C6.67 9.66 6.34 10.32 6 11 C4.078125 10.2890625 4.078125 10.2890625 2 9 C1.171875 6.8359375 1.171875 6.8359375 0.75 4.375 C0.60046875 3.55773437 0.4509375 2.74046875 0.296875 1.8984375 C0.19890625 1.27195312 0.1009375 0.64546875 0 0 Z " fill="#F09292" transform="translate(384,104)"/>
<path d="M0 0 C2.93200474 2.85276137 5.64315404 5.65079784 8 9 C7.67 9.66 7.34 10.32 7 11 C6.67 10.01 6.34 9.02 6 8 C3.98491642 7.26676204 3.98491642 7.26676204 2 7 C1.34 4.69 0.68 2.38 0 0 Z " fill="#EF9898" transform="translate(376,93)"/>
<path d="M0 0 C0.33 0 0.66 0 1 0 C1.08121924 1.60332791 1.13929134 3.20784026 1.1875 4.8125 C1.23970703 6.15248047 1.23970703 6.15248047 1.29296875 7.51953125 C0.95081002 10.41647515 0.24606427 11.22555028 -2 13 C-2.19294408 8.17639811 -1.75747614 4.50353262 0 0 Z " fill="#EC7D7B" transform="translate(156,71)"/>
<path d="M0 0 C0.33 0.66 0.66 1.32 1 2 C-0.98 4.64 -2.96 7.28 -5 10 C-5 7.33333333 -5 4.66666667 -5 2 C-4.360625 1.855625 -3.72125 1.71125 -3.0625 1.5625 C-1.02454854 1.18992819 -1.02454854 1.18992819 0 0 Z " fill="#A0CCAA" transform="translate(205,305)"/>
<path d="M0 0 C1.8871875 0.061875 1.8871875 0.061875 3.8125 0.125 C-0.69082676 3.12721784 -4.76517579 4.44396025 -10.1875 4.125 C-3.8125 -0.125 -3.8125 -0.125 0 0 Z " fill="#F0ACAD" transform="translate(246.1875,162.875)"/>
<path d="M0 0 C2.97246802 2.54782974 4.41535288 5.45340883 6 9 C6 9.66 6 10.32 6 11 C4 11 4 11 2.4375 10 C0.19187539 6.87565271 0.31165434 3.80218292 0 0 Z " fill="#EE9395" transform="translate(391,115)"/>
<path d="M0 0 C0.66 0.33 1.32 0.66 2 1 C0.08864614 4.53600465 -1.62642766 6.78972846 -5 9 C-5.66 8.67 -6.32 8.34 -7 8 C-4.69 5.36 -2.38 2.72 0 0 Z " fill="#65AD78" transform="translate(118,65)"/>
<path d="M0 0 C0.33 0 0.66 0 1 0 C1.50423019 5.29441695 0.18923033 7.81413519 -3 12 C-4.21386936 8.35839192 -3.6674695 7.66834531 -2.0625 4.3125 C-1.49208984 3.10013672 -1.49208984 3.10013672 -0.91015625 1.86328125 C-0.60980469 1.24839844 -0.30945313 0.63351563 0 0 Z " fill="#ABCFB6" transform="translate(70,126)"/>
<path d="M0 0 C2.0625 0.4375 2.0625 0.4375 4 1 C2.92598892 3.91517292 2.22189824 5.77810176 0 8 C-0.38063221 5.6739143 -0.71269945 3.33944736 -1 1 C-0.67 0.67 -0.34 0.34 0 0 Z " fill="#668CA7" transform="translate(390,289)"/>
<path d="M0 0 C2.97 0.33 5.94 0.66 9 1 C9.66 2.65 10.32 4.3 11 6 C7.2089881 4.55049545 3.6125362 2.84827434 0 1 C0 0.67 0 0.34 0 0 Z " fill="#F1A5A5" transform="translate(358,146)"/>
<path d="M0 0 C2.27795022 2.27795022 3.05219877 3.93787293 4 7 C3.625 9.3125 3.625 9.3125 3 11 C2.34 10.67 1.68 10.34 1 10 C0.5859375 7.71484375 0.5859375 7.71484375 0.375 4.9375 C0.30023438 4.01839844 0.22546875 3.09929687 0.1484375 2.15234375 C0.09945312 1.44207031 0.05046875 0.73179687 0 0 Z " fill="#90C29C" transform="translate(208,234)"/>
<path d="M0 0 C1.21816406 0.03480469 1.21816406 0.03480469 2.4609375 0.0703125 C3.68683594 0.09738281 3.68683594 0.09738281 4.9375 0.125 C5.87722656 0.15980469 5.87722656 0.15980469 6.8359375 0.1953125 C7.1659375 0.8553125 7.4959375 1.5153125 7.8359375 2.1953125 C4.8359375 3.1953125 4.8359375 3.1953125 1.8359375 2.1953125 C-0.16367814 2.15610435 -2.16455614 2.15087903 -4.1640625 2.1953125 C-2.1640625 0.1953125 -2.1640625 0.1953125 0 0 Z " fill="#F2060B" transform="translate(212.1640625,25.8046875)"/>
<path d="M0 0 C4.455 0.99 4.455 0.99 9 2 C9 2.99 9 3.98 9 5 C5.51694958 4.35499066 2.93797836 2.95865224 0 1 C0 0.67 0 0.34 0 0 Z " fill="#A5CDAF" transform="translate(105,328)"/>
<path d="M0 0 C0.66 0 1.32 0 2 0 C1.35455571 3.48539917 -0.10134397 6.02819057 -2 9 C-2.33 7.68 -2.66 6.36 -3 5 C-2.34 5 -1.68 5 -1 5 C-0.67 3.35 -0.34 1.7 0 0 Z " fill="#51A668" transform="translate(199,309)"/>
<path d="M0 0 C1.875 0.625 1.875 0.625 4 2 C5.25 5.125 5.25 5.125 6 8 C4.68 8 3.36 8 2 8 C1.34 5.36 0.68 2.72 0 0 Z " fill="#6AAE7D" transform="translate(191,213)"/>
<path d="M0 0 C1.98 1.65 3.96 3.3 6 5 C5.67 5.66 5.34 6.32 5 7 C1.125 6.125 1.125 6.125 0 5 C-0.04063832 3.33382885 -0.042721 1.66611905 0 0 Z " fill="#96C39F" transform="translate(137,173)"/>
<path d="M0 0 C1.98 1.65 3.96 3.3 6 5 C5.67 5.66 5.34 6.32 5 7 C2.525 6.01 2.525 6.01 0 5 C0 3.35 0 1.7 0 0 Z " fill="#ED7375" transform="translate(361,76)"/>
<path d="M0 0 C4.19469571 0.59924224 8.00999834 1.57499941 12 3 C8.42355152 4.2380014 5.66305234 3.74926071 2 3 C2 2.34 2 1.68 2 1 C1.34 0.67 0.68 0.34 0 0 Z " fill="#F0ABAB" transform="translate(289,33)"/>
<path d="M0 0 C0.99 0.33 1.98 0.66 3 1 C3 1.66 3 2.32 3 3 C0.625 4.6875 0.625 4.6875 -2 6 C-2.66 5.67 -3.32 5.34 -4 5 C-3.67 4.01 -3.34 3.02 -3 2 C-2.01 2 -1.02 2 0 2 C0 1.34 0 0.68 0 0 Z " fill="#7E9CB1" transform="translate(332,354)"/>
<path d="M0 0 C1.32 0.66 2.64 1.32 4 2 C4 2.66 4 3.32 4 4 C3.34 4 2.68 4 2 4 C1.34 5.32 0.68 6.64 0 8 C-0.66 7.67 -1.32 7.34 -2 7 C-1.01 5.35 -0.02 3.7 1 2 C0.34 1.67 -0.32 1.34 -1 1 C-0.67 0.67 -0.34 0.34 0 0 Z " fill="#7F9FB6" transform="translate(350,338)"/>
<path d="M0 0 C4.455 1.98 4.455 1.98 9 4 C8.34 4.66 7.68 5.32 7 6 C4.875 5.625 4.875 5.625 3 5 C3 4.34 3 3.68 3 3 C2.01 2.67 1.02 2.34 0 2 C0 1.34 0 0.68 0 0 Z " fill="#379550" transform="translate(167,200)"/>
<path d="M0 0 C1.32554118 3.97662354 0.34765994 6.09887911 -1 10 C-1.66 10.66 -2.32 11.32 -3 12 C-2.49202991 7.6822542 -1.80317221 3.96697886 0 0 Z " fill="#C0DBC8" transform="translate(63,143)"/>
<path d="M0 0 C0.66 0.33 1.32 0.66 2 1 C1.67 2.32 1.34 3.64 1 5 C-0.98 5 -2.96 5 -5 5 C-4.34 4.67 -3.68 4.34 -3 4 C-2.67 3.01 -2.34 2.02 -2 1 C-1.34 0.67 -0.68 0.34 0 0 Z " fill="#EE5D5F" transform="translate(194,30)"/>
<path d="M0 0 C2 3.75 2 3.75 2 6 C0.35 6 -1.3 6 -3 6 C-1.125 1.125 -1.125 1.125 0 0 Z " fill="#6A91AE" transform="translate(244,321)"/>
<path d="M0 0 C0.33 0.66 0.66 1.32 1 2 C2.32 1.67 3.64 1.34 5 1 C3.25 5.875 3.25 5.875 1 7 C0.67 4.69 0.34 2.38 0 0 Z " fill="#7496AF" transform="translate(385,296)"/>
<path d="M0 0 C0.33 0 0.66 0 1 0 C1.33 3.3 1.66 6.6 2 10 C1.01 10.33 0.02 10.66 -1 11 C-0.67 7.37 -0.34 3.74 0 0 Z " fill="#8AA8BC" transform="translate(261,277)"/>
<path d="M0 0 C2.0343459 1.41519715 2.90410393 2.54982123 3.421875 4.98046875 C3.66273952 6.98176954 3.83532741 8.9909944 4 11 C2 10 2 10 0.875 7.1875 C0 4 0 4 0 0 Z " fill="#B7D6BF" transform="translate(62,261)"/>
<path d="M0 0 C1 2 1 2 0.1875 5.5 C-1 9 -1 9 -3 11 C-2.53199289 6.94393835 -2.12046792 3.53411321 0 0 Z " fill="#ADC0CE" transform="translate(266,224)"/>
<path d="M0 0 C2.97 0.33 5.94 0.66 9 1 C9 1.99 9 2.98 9 4 C5.85262818 3.30058404 2.97411124 2.23921302 0 1 C0 0.67 0 0.34 0 0 Z " fill="#EF9697" transform="translate(349,142)"/>
<path d="M0 0 C1.60080151 4.00200378 0.29279692 7.04556236 -1 11 C-1.33 11 -1.66 11 -2 11 C-2.25 3.375 -2.25 3.375 0 0 Z " fill="#A0B6C6" transform="translate(403,263)"/>
<path d="M0 0 C2 1 2 1 3.1875 3.375 C4 6 4 6 3 9 C1.5 7.875 1.5 7.875 0 6 C-0.1875 2.8125 -0.1875 2.8125 0 0 Z " fill="#F2ABAE" transform="translate(400,134)"/>
<path d="" fill="#FFFFFF" transform="translate(0,0)"/>
<path d="" fill="#FFFFFF" transform="translate(0,0)"/>
<path d="" fill="#FFFFFF" transform="translate(0,0)"/>
<path d="" fill="#FFFFFF" transform="translate(0,0)"/>
<path d="" fill="#FFFFFF" transform="translate(0,0)"/>
<path d="" fill="#FFFFFF" transform="translate(0,0)"/>
<path d="" fill="#FFFFFF" transform="translate(0,0)"/>
<path d="" fill="#FFFFFF" transform="translate(0,0)"/>
<path d="" fill="#FFFFFF" transform="translate(0,0)"/>
<path d="" fill="#FFFFFF" transform="translate(0,0)"/>
<path d="" fill="#FFFFFF" transform="translate(0,0)"/>
<path d="" fill="#FFFFFF" transform="translate(0,0)"/>
<path d="" fill="#FFFFFF" transform="translate(0,0)"/>
<path d="" fill="#FFFFFF" transform="translate(0,0)"/>
<path d="" fill="#FFFFFF" transform="translate(0,0)"/>
<path d="" fill="#FFFFFF" transform="translate(0,0)"/>
<path d="" fill="#FFFFFF" transform="translate(0,0)"/>
<path d="" fill="#FFFFFF" transform="translate(0,0)"/>
<path d="" fill="#FFFFFF" transform="translate(0,0)"/>
<path d="" fill="#FFFFFF" transform="translate(0,0)"/>
<path d="" fill="#FFFFFF" transform="translate(0,0)"/>
<path d="" fill="#FFFFFF" transform="translate(0,0)"/>
<path d="" fill="#FFFFFF" transform="translate(0,0)"/>
<path d="" fill="#FFFFFF" transform="translate(0,0)"/>
<path d="" fill="#FFFFFF" transform="translate(0,0)"/>
<path d="" fill="#FFFFFF" transform="translate(0,0)"/>
<path d="" fill="#FFFFFF" transform="translate(0,0)"/>
<path d="" fill="#FFFFFF" transform="translate(0,0)"/>
<path d="" fill="#FFFFFF" transform="translate(0,0)"/>
<path d="" fill="#FFFFFF" transform="translate(0,0)"/>
<path d="" fill="#FFFFFF" transform="translate(0,0)"/>
</svg>
